<?xml version="1.0" encoding="UTF-8" standalone="no"?>
<!-- Created with Inkscape (http://www.inkscape.org/) -->

<svg
   width="144"
   height="144"
   viewBox="0 0 38.099999 38.1"
   version="1.1"
   id="svg5"
   xml:space="preserve"
   inkscape:version="1.2.1 (9c6d41e410, 2022-07-14)"
   sodipodi:docname="logo2.svg"
   inkscape:export-filename="logo2.png"
   inkscape:export-xdpi="96"
   inkscape:export-ydpi="96"
   xmlns:inkscape="http://www.inkscape.org/namespaces/inkscape"
   xmlns:sodipodi="http://sodipodi.sourceforge.net/DTD/sodipodi-0.dtd"
   xmlns="http://www.w3.org/2000/svg"
   xmlns:svg="http://www.w3.org/2000/svg"><sodipodi:namedview
     id="namedview7"
     pagecolor="#505050"
     bordercolor="#eeeeee"
     borderopacity="1"
     inkscape:showpageshadow="0"
     inkscape:pageopacity="0"
     inkscape:pagecheckerboard="0"
     inkscape:deskcolor="#505050"
     inkscape:document-units="mm"
     showgrid="false"
     inkscape:zoom="2.8079685"
     inkscape:cx="-58.227148"
     inkscape:cy="108.97558"
     inkscape:window-width="1920"
     inkscape:window-height="986"
     inkscape:window-x="-11"
     inkscape:window-y="-11"
     inkscape:window-maximized="1"
     inkscape:current-layer="layer1" /><defs
     id="defs2"><inkscape:path-effect
       effect="spiro"
       id="path-effect10573"
       is_visible="true"
       lpeversion="1" /><inkscape:path-effect
       effect="spiro"
       id="path-effect9459"
       is_visible="true"
       lpeversion="1" /><inkscape:path-effect
       effect="spiro"
       id="path-effect3687"
       is_visible="true"
       lpeversion="1" /><inkscape:path-effect
       effect="spiro"
       id="path-effect3681"
       is_visible="true"
       lpeversion="1" /><inkscape:path-effect
       effect="spiro"
       id="path-effect3632"
       is_visible="true"
       lpeversion="1" /><inkscape:path-effect
       effect="spiro"
       id="path-effect3626"
       is_visible="true"
       lpeversion="1" /><inkscape:path-effect
       effect="spiro"
       id="path-effect3461"
       is_visible="true"
       lpeversion="1" /><inkscape:path-effect
       effect="spiro"
       id="path-effect3457"
       is_visible="true"
       lpeversion="1" /><inkscape:path-effect
       effect="spiro"
       id="path-effect3453"
       is_visible="true"
       lpeversion="1" /><inkscape:path-effect
       effect="spiro"
       id="path-effect3449"
       is_visible="true"
       lpeversion="1" /><inkscape:path-effect
       effect="spiro"
       id="path-effect3396"
       is_visible="true"
       lpeversion="1" /><inkscape:path-effect
       effect="spiro"
       id="path-effect3392"
       is_visible="true"
       lpeversion="1" /><inkscape:path-effect
       effect="spiro"
       id="path-effect3388"
       is_visible="true"
       lpeversion="1" /><inkscape:path-effect
       effect="spiro"
       id="path-effect3384"
       is_visible="true"
       lpeversion="1" /><inkscape:path-effect
       effect="spiro"
       id="path-effect3380"
       is_visible="true"
       lpeversion="1" /><inkscape:path-effect
       effect="spiro"
       id="path-effect3370"
       is_visible="true"
       lpeversion="1" /><inkscape:path-effect
       effect="spiro"
       id="path-effect1125"
       is_visible="true"
       lpeversion="1" /><inkscape:path-effect
       effect="spiro"
       id="path-effect444"
       is_visible="true"
       lpeversion="1" /><inkscape:path-effect
       effect="spiro"
       id="path-effect387"
       is_visible="true"
       lpeversion="1" /><inkscape:path-effect
       effect="spiro"
       id="path-effect322"
       is_visible="true"
       lpeversion="1" /><inkscape:path-effect
       effect="spiro"
       id="path-effect3681-0"
       is_visible="true"
       lpeversion="1" /><inkscape:path-effect
       effect="spiro"
       id="path-effect3687-2"
       is_visible="true"
       lpeversion="1" /></defs><g
     inkscape:label="Livello 1"
     inkscape:groupmode="layer"
     id="layer1"><path
       style="fill:#ffffff;stroke:#ffffff;stroke-width:0;stroke-dasharray:none;stroke-opacity:1"
       d="m 6.5445259,35.913481 c 0.057,-0.330652 0.310704,-1.115017 0.44417,-1.373201 0.604748,-1.169827 1.693412,-2.376865 2.807111,-3.112296 0.4210371,-0.278077 1.2139521,-0.646589 1.6143791,-0.750388 0.326521,-0.08461 2.484855,-0.504784 2.750029,-0.535357 0.570702,-0.06583 1.322187,-0.267008 1.82524,-0.488729 0.610296,-0.268997 1.439327,-0.973939 1.856251,-1.578431 0.510262,-0.739665 0.702115,-1.226395 0.606,-1.537157 -0.142123,-0.459546 -0.436321,-0.583136 -0.996251,-0.418416 -1.166486,0.343153 -1.464825,0.469764 -2.380896,1.010388 -0.235486,0.138971 -0.728304,0.373425 -1.095142,0.520978 -2.484887,0.999671 -4.0678751,1.149609 -5.5588701,0.526509 -1.363474,-0.569785 -2.410732,-1.940566 -2.803599,-3.669656 -0.227564,-1.001562 0.01641,-2.178431 0.698817,-3.370856 0.522593,-0.913153 1.098455,-1.48972 2.199063,-2.201792 0.570741,-0.369242 1.7342411,-0.998084 2.4369631,-1.317111 0.281087,-0.127598 0.670987,-0.304816 0.866445,-0.393804 0.466321,-0.212262 1.361419,-0.728492 1.733673,-0.999834 0.366367,-0.267047 0.894801,-0.780312 1.098181,-1.066668 0.379747,-0.534627 0.593524,-1.276859 0.47527,-1.650101 -0.02896,-0.09141 -0.03808,-0.18034 -0.02025,-0.197609 0.01782,-0.01742 0.202193,-0.05442 0.409708,-0.08257 l 0.377289,-0.05116 0.05623,-0.471463 c 0.03092,-0.259326 0.0583,-0.643003 0.06084,-0.852595 0.0025,-0.209595 0.02589,-0.496036 0.05191,-0.636512 0.02601,-0.140435 0.06073,-0.419816 0.07716,-0.620796 l 0.02986,-0.365364 h 0.144739 c 0.0841,0 0.132134,0.01932 0.114656,0.04714 -0.01693,0.0263 0.02213,0.04713 0.08938,0.04713 0.171939,0 0.785636,0.263267 1.126876,0.483447 0.405554,0.261573 1.06306,0.89411 1.310935,1.261048 0.418308,0.619069 0.581038,1.067399 0.670523,1.847027 0.12953,1.128494 -0.162817,2.050118 -0.988951,3.117287 -0.898558,1.160784 -1.730513,1.653241 -4.569407,2.704642 -0.781061,0.289283 -2.197347,0.958531 -2.628092,1.241892 -0.401882,0.264359 -0.703506,0.614408 -0.950682,1.103297 -0.19172,0.379235 -0.220676,0.478907 -0.247921,0.853617 -0.03704,0.509368 0.05355,0.917215 0.279466,1.258258 0.449524,0.678565 1.174138,0.916623 2.342126,0.76946 0.944582,-0.119018 1.330922,-0.260392 3.176362,-1.162355 1.279288,-0.625248 1.858225,-0.80842 2.555336,-0.80842 0.640029,0 1.399157,0.230627 1.721997,0.523185 0.676571,0.61302 0.993983,2.11957 0.690698,3.277787 -0.282738,1.079772 -0.77934,1.811421 -1.727391,2.846565 -0.448608,0.538655 -1.171099,0.840713 -1.691479,1.090915 -0.868827,0.415222 -1.479409,0.676246 -2.244586,0.767664 -1.651976,0.197331 -1.764132,0.252839 -2.410792,0.301287 -0.941274,0.123533 -1.745134,0.325312 -2.510125,0.60748 -0.9198321,0.457957 -1.2069491,0.560241 -1.7576291,1.136482 -0.995429,1.041592 -1.780539,1.789518 -1.984835,2.345569 -0.102199,0.278153 -0.177005,0.291638 -0.130795,0.02327 z"
       id="path3532"
       sodipodi:nodetypes="sssssssssssssssssssssscsssscsssssssssssssssssccsccsss" /><path
       style="fill:#ffffff;stroke:#ffffff;stroke-width:0;stroke-dasharray:none;stroke-opacity:1"
       d="m 27.772537,26.440818 c -0.309235,-0.200245 -0.73251,-0.496339 -0.940717,-0.657947 -0.473297,-0.367417 -1.212984,-1.062132 -1.573907,-1.478358 -0.812393,-0.93671 -1.385384,-2.061213 -1.615648,-3.170544 -0.112726,-0.543046 -0.113186,-1.552986 -0.0011,-2.053259 0.205607,-0.916385 0.560661,-1.597572 1.71269,-3.285716 1.360305,-1.993408 2.098318,-2.797416 3.432614,-3.739441 0.198055,-0.139778 0.131136,-0.186432 -0.267109,-0.186432 -0.744723,0 -1.50243,0.347346 -2.56538,1.176035 -0.7453,0.581115 -1.149098,1.06138 -1.842242,2.191186 -0.544879,0.888256 -1.033863,1.56865 -1.542478,2.146674 -1.443299,1.640174 -2.6261,2.413674 -4.066529,2.65942 -0.167356,0.02838 -0.761092,0.04204 -1.944575,0.04424 -1.44879,0.0029 -1.762851,0.01238 -2.099438,0.0623 -0.553003,0.0827 -1.135606,0.204665 -1.535577,0.321496 -0.412635,0.120486 -0.449535,0.122981 -0.269192,0.01797 0.260203,-0.151086 1.060104,-0.475438 2.183358,-0.88528 0.615201,-0.224478 1.335378,-0.505284 1.600388,-0.624057 0.423777,-0.18987 0.530933,-0.223464 0.889239,-0.278767 1.267252,-0.195695 2.443617,-0.897547 3.368929,-2.010056 0.912785,-1.097559 1.543004,-2.528974 1.71516,-3.896012 0.0523,-0.415345 0.02433,-1.444377 -0.04964,-1.825606 -0.252795,-1.3028815 -0.921192,-2.5363505 -1.877688,-3.4652455 -0.759774,-0.737886 -1.445231,-1.113549 -2.922573,-1.601766 -0.670311,-0.221506 -0.948626,-0.269077 -1.195556,-0.204333 -0.193997,0.05086 -0.411294,0.211009 -0.527838,0.389038 l -0.09762,0.149088 -0.0467,-0.225476 c -0.0692,-0.334097 -0.05953,-0.916455 0.01894,-1.142292 0.152877,-0.439978 0.446705,-0.830272 0.940852,-1.24973 1.134344,-0.963 2.422876,-1.415348 4.035036,-1.416455 1.470725,-0.0011 2.664008,0.332726 4.184882,1.17035 1.828097,1.006949 3.190314,2.090626 4.457589,3.546156 0.294531,0.338315 0.789246,0.959794 0.775006,0.9736 -0.0052,0.0052 -0.159158,-0.08662 -0.342238,-0.203544 -0.405137,-0.258767 -0.866755,-0.458092 -1.572365,-0.679014 -0.793386,-0.248398 -1.028512,-0.289849 -1.63479,-0.288114 -0.429232,0.0011 -0.590891,0.01727 -0.958387,0.09317 -1.236706,0.256503 -1.70894,0.494006 -1.70894,0.85934 0,0.09457 0.02191,0.139906 0.09425,0.195049 0.108769,0.08287 0.227641,0.07931 0.608144,-0.01823 0.237171,-0.06077 0.240359,-0.06067 1.032541,0.03093 1.79947,0.208365 2.620727,0.39696 3.651343,0.838657 1.449212,0.621096 2.54008,1.4337625 3.210402,2.3916895 0.550661,0.78686 1.195039,2.025333 1.432269,2.752828 0.160622,0.49257 0.23403,1.142614 0.170851,1.512876 l -0.02126,0.124588 -0.193452,-0.162017 c -0.538199,-0.450806 -1.282732,-0.855534 -1.875672,-1.019721 -1.017705,-0.281803 -1.908422,-0.107353 -2.548287,0.499141 -0.661508,0.626862 -0.83682,1.511619 -0.496515,2.505581 0.302313,0.883124 1.001423,1.554366 1.836004,1.762657 0.270049,0.0674 0.867292,0.06836 1.163286,0.0018 0.696626,-0.156516 1.391981,-0.616427 1.554275,-1.028092 0.04666,-0.118363 0.05788,-0.213105 0.04445,-0.375155 -0.02812,-0.339553 -0.149708,-0.543323 -0.561833,-0.941572 l -0.353582,-0.341708 0.178012,7.31e-4 c 0.865472,0.0029 1.630564,0.589703 1.868071,1.432974 0.08919,0.31674 0.08182,0.900783 -0.01578,1.250208 -0.195209,0.698791 -0.690307,1.399555 -1.31282,1.85829 -0.260538,0.191952 -0.822043,0.461602 -1.118575,0.537169 -0.563699,0.14362 -1.272578,0.150348 -2.194804,0.02042 -1.549213,-0.21757 -2.376577,-0.55946 -2.885831,-1.192334 -0.196254,-0.243967 -0.263055,-0.307142 -0.324732,-0.307142 -0.04533,0 -0.187002,0.463155 -0.280454,0.916802 -0.04912,0.23842 -0.06145,0.457607 -0.06009,1.066843 0.0015,0.704055 0.0094,0.80182 0.09545,1.194803 0.263588,1.203564 0.847225,2.385879 1.733465,3.511364 0.0482,0.06123 0.07159,0.111305 0.05196,0.111305 -0.01961,0 -0.288606,-0.163829 -0.597736,-0.364093 z"
       id="path3534" /><path
       style="fill:#ffffff;stroke:#ffffff;stroke-width:0;stroke-opacity:1;stroke-dasharray:none"
       d="m 46.146285,49.597288 c -4.062526,-0.419275 -8.546689,-1.55073 -12.164274,-3.069322 l -1.084129,-0.455095 -0.08388,-1.348312 c -0.102962,-1.655094 0.113913,-6.956094 0.371965,-9.09182 0.6585,-5.449961 2.387493,-8.279472 5.49898,-8.999126 2.442221,-0.564859 6.739673,-0.739232 9.083151,-0.368557 3.521712,0.557041 8.374348,2.894558 10.471813,5.044279 0.833746,0.854517 1.425593,1.914654 1.710716,3.064296 0.256572,1.034525 0.222005,6.046943 -0.05497,7.970304 -0.117685,0.817245 -0.213974,1.827801 -0.213974,2.245679 0,0.971067 -0.489979,4.028667 -0.67653,4.221729 -0.157639,0.163142 -2.707519,0.591533 -4.719495,0.792898 -1.504304,0.150554 -6.655859,0.146154 -8.13938,-0.007 z"
       id="path10644"
       transform="scale(0.26458333)" /></g></svg>
