<?xml version="1.0" encoding="UTF-8" standalone="no"?>
<!-- Created with Inkscape (http://www.inkscape.org/) -->

<svg
   width="144"
   height="129"
   viewBox="0 0 38.099999 34.131255"
   version="1.1"
   id="svg5"
   xml:space="preserve"
   inkscape:version="1.2.1 (9c6d41e410, 2022-07-14)"
   sodipodi:docname="logo light.svg"
   xmlns:inkscape="http://www.inkscape.org/namespaces/inkscape"
   xmlns:sodipodi="http://sodipodi.sourceforge.net/DTD/sodipodi-0.dtd"
   xmlns="http://www.w3.org/2000/svg"
   xmlns:svg="http://www.w3.org/2000/svg"><sodipodi:namedview
     id="namedview7"
     pagecolor="#505050"
     bordercolor="#eeeeee"
     borderopacity="1"
     inkscape:showpageshadow="0"
     inkscape:pageopacity="0"
     inkscape:pagecheckerboard="0"
     inkscape:deskcolor="#505050"
     inkscape:document-units="mm"
     showgrid="false"
     inkscape:zoom="2.8079686"
     inkscape:cx="0.17806467"
     inkscape:cy="9.6154922"
     inkscape:window-width="1920"
     inkscape:window-height="986"
     inkscape:window-x="-11"
     inkscape:window-y="-11"
     inkscape:window-maximized="1"
     inkscape:current-layer="layer1" /><defs
     id="defs2"><inkscape:path-effect
       effect="spiro"
       id="path-effect3687"
       is_visible="true"
       lpeversion="1" /><inkscape:path-effect
       effect="spiro"
       id="path-effect3681"
       is_visible="true"
       lpeversion="1" /><inkscape:path-effect
       effect="spiro"
       id="path-effect3632"
       is_visible="true"
       lpeversion="1" /><inkscape:path-effect
       effect="spiro"
       id="path-effect3626"
       is_visible="true"
       lpeversion="1" /><inkscape:path-effect
       effect="spiro"
       id="path-effect3461"
       is_visible="true"
       lpeversion="1" /><inkscape:path-effect
       effect="spiro"
       id="path-effect3457"
       is_visible="true"
       lpeversion="1" /><inkscape:path-effect
       effect="spiro"
       id="path-effect3453"
       is_visible="true"
       lpeversion="1" /><inkscape:path-effect
       effect="spiro"
       id="path-effect3449"
       is_visible="true"
       lpeversion="1" /><inkscape:path-effect
       effect="spiro"
       id="path-effect3396"
       is_visible="true"
       lpeversion="1" /><inkscape:path-effect
       effect="spiro"
       id="path-effect3392"
       is_visible="true"
       lpeversion="1" /><inkscape:path-effect
       effect="spiro"
       id="path-effect3388"
       is_visible="true"
       lpeversion="1" /><inkscape:path-effect
       effect="spiro"
       id="path-effect3384"
       is_visible="true"
       lpeversion="1" /><inkscape:path-effect
       effect="spiro"
       id="path-effect3380"
       is_visible="true"
       lpeversion="1" /><inkscape:path-effect
       effect="spiro"
       id="path-effect3370"
       is_visible="true"
       lpeversion="1" /><inkscape:path-effect
       effect="spiro"
       id="path-effect1125"
       is_visible="true"
       lpeversion="1" /><inkscape:path-effect
       effect="spiro"
       id="path-effect444"
       is_visible="true"
       lpeversion="1" /><inkscape:path-effect
       effect="spiro"
       id="path-effect387"
       is_visible="true"
       lpeversion="1" /><inkscape:path-effect
       effect="spiro"
       id="path-effect322"
       is_visible="true"
       lpeversion="1" /><inkscape:path-effect
       effect="spiro"
       id="path-effect3681-0"
       is_visible="true"
       lpeversion="1" /><inkscape:path-effect
       effect="spiro"
       id="path-effect3687-2"
       is_visible="true"
       lpeversion="1" /></defs><g
     inkscape:label="Livello 1"
     inkscape:groupmode="layer"
     id="layer1"><path
       style="fill:none;stroke:#d2d2d2;stroke-width:0.382132;stroke-dasharray:none;stroke-opacity:1"
       d="m 6.6027917,32.408026 c 0.057035,-0.301586 0.3108951,-1.016999 0.4444432,-1.252486 0.60512,-1.06699 1.6944536,-2.16792 2.8088376,-2.838701 0.4212965,-0.253632 1.2146985,-0.589749 1.6153725,-0.684423 0.326722,-0.07717 2.486383,-0.46041 2.75172,-0.488295 0.571053,-0.06004 1.323,-0.243536 1.826363,-0.445766 0.610671,-0.24535 1.440212,-0.888322 1.857393,-1.439675 0.510575,-0.674642 0.702546,-1.118585 0.606372,-1.402028 -0.14221,-0.419149 -0.436589,-0.531874 -0.996863,-0.381634 -1.167204,0.312987 -1.465726,0.428468 -2.382361,0.921567 -0.235631,0.126754 -0.728752,0.340598 -1.095815,0.47518 -2.486416,0.911792 -4.0703778,1.048549 -5.5622899,0.480224 -1.3643126,-0.519696 -2.4122147,-1.769975 -2.8053234,-3.347064 -0.2277039,-0.913517 0.01642,-1.98693 0.6992468,-3.074532 0.5229145,-0.832879 1.0991307,-1.358761 2.2004156,-2.008237 0.5710921,-0.336782 1.7353079,-0.910344 2.4384619,-1.201326 0.28126,-0.116382 0.6714,-0.278021 0.866978,-0.359186 0.466608,-0.193602 1.362257,-0.664452 1.73474,-0.911941 0.366592,-0.243571 0.895351,-0.711716 1.098856,-0.972899 0.379981,-0.487629 0.593889,-1.164613 0.475562,-1.505044 -0.02898,-0.08337 -0.0381,-0.164487 -0.02026,-0.180238 0.01783,-0.01589 0.202317,-0.04964 0.40996,-0.07531 l 0.377521,-0.04666 0.05627,-0.430018 c 0.03094,-0.236529 0.05833,-0.586478 0.06088,-0.777645 0.0025,-0.19117 0.02591,-0.452431 0.05194,-0.5805575 0.02603,-0.128089 0.06077,-0.382911 0.07721,-0.566223 l 0.02988,-0.333245 h 0.144828 c 0.08415,0 0.132215,0.01762 0.114726,0.043 -0.01694,0.02399 0.02214,0.04299 0.08943,0.04299 0.172045,0 0.786119,0.240124 1.127569,0.440949 0.405804,0.238578 1.063714,0.8155095 1.311742,1.1501915 0.418565,0.564648 0.581395,0.973566 0.670935,1.684659 0.12961,1.02929 -0.162917,1.869896 -0.989559,2.843253 -0.899111,1.058742 -1.731578,1.507908 -4.572218,2.466882 -0.781541,0.263853 -2.198698,0.874269 -2.629708,1.13272 -0.402129,0.24112 -0.703939,0.560397 -0.951267,1.006309 -0.191838,0.345897 -0.220812,0.436807 -0.248073,0.778577 -0.03706,0.464591 0.05358,0.836585 0.279638,1.147648 0.4498,0.618913 1.17486,0.836044 2.343566,0.701818 0.945163,-0.108555 1.331741,-0.237502 3.178316,-1.060175 1.280075,-0.570284 1.859368,-0.737353 2.556907,-0.737353 0.640423,0 1.400018,0.210353 1.723057,0.477192 0.676987,0.559131 0.994594,1.933244 0.691122,2.989644 -0.282911,0.984852 -0.779819,1.652183 -1.728453,2.59633 -0.448884,0.491303 -1.171819,0.766808 -1.692519,0.995015 -0.869362,0.378721 -1.480319,0.616799 -2.245967,0.70018 -1.652992,0.179984 -1.765217,0.230613 -2.412275,0.274802 -0.941853,0.112673 -1.746207,0.296714 -2.511669,0.554078 -0.9203977,0.417699 -1.2076913,0.510991 -1.75871,1.036576 -0.9960413,0.950028 -1.7816342,1.632205 -1.9860559,2.139375 -0.1022618,0.253701 -0.1771138,0.266001 -0.1308754,0.02122 z"
       id="path3532"
       sodipodi:nodetypes="sssssssssssssssssssssscsssscsssssssssssssssssccsccsss" /><path
       style="fill:none;stroke:#d2d2d2;stroke-width:0.382132;stroke-dasharray:none;stroke-opacity:1"
       d="m 27.84386,23.768084 c -0.309426,-0.182642 -0.732961,-0.452707 -0.941296,-0.600108 -0.473588,-0.335119 -1.21373,-0.968763 -1.574875,-1.348399 -0.812893,-0.854366 -1.386236,-1.880016 -1.616642,-2.891829 -0.112795,-0.495308 -0.113255,-1.416466 -0.0011,-1.872761 0.205733,-0.835828 0.561005,-1.457133 1.713743,-2.996876 1.361142,-1.818172 2.099609,-2.551501 3.434725,-3.410715 0.198177,-0.12749 0.131217,-0.170043 -0.267273,-0.170043 -0.745181,0 -1.503354,0.316812 -2.566958,1.072652 -0.745758,0.530031 -1.149805,0.968077 -1.843375,1.998564 -0.545214,0.810171 -1.034499,1.430753 -1.543427,1.957965 -1.444186,1.495989 -2.627715,2.201493 -4.06903,2.425636 -0.167459,0.02588 -0.76156,0.03834 -1.945771,0.04035 -1.449681,0.0026 -1.763935,0.01129 -2.100729,0.05682 -0.553343,0.07543 -1.136305,0.186673 -1.536522,0.293234 -0.412889,0.109894 -0.449811,0.11217 -0.269357,0.01639 0.260363,-0.137804 1.060756,-0.433643 2.184701,-0.807457 0.615579,-0.204744 1.336199,-0.460865 1.601372,-0.569197 0.424038,-0.173179 0.53126,-0.20382 0.889786,-0.254261 1.268031,-0.178492 2.44512,-0.818646 3.371001,-1.833357 0.913346,-1.001075 1.543953,-2.306657 1.716215,-3.553522 0.05233,-0.378833 0.02435,-1.317405 -0.04967,-1.6651205 C 22.176427,8.4677055 21.507619,7.3426685 20.550535,6.4954305 19.790293,5.8224106 19.104415,5.4797713 17.626164,5.0344724 16.955441,4.8324385 16.676954,4.7890494 16.429873,4.8481019 16.235756,4.8944909 16.018326,5.0405615 15.90171,5.2029404 L 15.80403,5.3389224 15.7573,5.1332675 C 15.68806,4.8285402 15.69773,4.297376 15.77625,4.0913919 c 0.152971,-0.4013005 0.44698,-0.7572846 0.941431,-1.139869 1.135041,-0.8783447 2.424366,-1.2909278 4.037517,-1.2919375 1.47163,-0.001 2.665647,0.3034768 4.187456,1.0674671 1.829222,0.9184303 3.192277,1.9068436 4.460331,3.2344211 0.294712,0.3085745 0.789731,0.8754209 0.775483,0.8880129 -0.0052,0.0047 -0.159256,-0.07901 -0.342449,-0.185651 C 29.430636,6.4278163 28.968734,6.2460135 28.26269,6.0445123 27.468816,5.8179504 27.233546,5.7801433 26.626895,5.7817258 c -0.429496,10e-4 -0.591255,0.015752 -0.958977,0.08498 -1.237467,0.2339544 -1.709991,0.450579 -1.709991,0.7837967 0,0.08626 0.02192,0.127607 0.09431,0.177903 0.108836,0.07559 0.227781,0.07234 0.608518,-0.01663 0.237317,-0.05543 0.240507,-0.05534 1.033176,0.02821 1.800577,0.190049 2.622339,0.362065 3.653589,0.764933 1.450103,0.566497 2.541642,1.307723 3.212377,2.181441 0.550999,0.7176885 1.195774,1.8472905 1.43315,2.5108325 0.16072,0.449269 0.234173,1.042169 0.170956,1.379882 l -0.02127,0.113636 -0.193571,-0.147774 c -0.538531,-0.411177 -1.283521,-0.780326 -1.876826,-0.93008 -1.018331,-0.25703 -1.909596,-0.09792 -2.549855,0.455263 -0.661914,0.571756 -0.837334,1.378736 -0.49682,2.285321 0.302499,0.80549 1.002039,1.417725 1.837133,1.607705 0.270215,0.06147 0.867826,0.06235 1.164002,0.0016 0.697054,-0.142757 1.392837,-0.562238 1.555231,-0.937715 0.04669,-0.107958 0.05792,-0.194371 0.04448,-0.342176 -0.02814,-0.309703 -0.1498,-0.49556 -0.562178,-0.8588 l -0.3538,-0.311669 0.178122,6.66e-4 c 0.866004,0.0026 1.631567,0.537864 1.86922,1.307005 0.08924,0.288896 0.08187,0.821597 -0.01579,1.140305 -0.195329,0.637362 -0.690732,1.276523 -1.313628,1.694931 -0.260698,0.175078 -0.822548,0.421024 -1.119263,0.489948 -0.564045,0.130995 -1.27336,0.137131 -2.196154,0.01863 -1.550165,-0.198444 -2.378038,-0.510279 -2.887605,-1.087518 -0.196375,-0.222521 -0.263217,-0.280142 -0.324932,-0.280142 -0.04536,0 -0.187117,0.42244 -0.280627,0.836208 -0.04915,0.217461 -0.06149,0.417379 -0.06013,0.973059 0.0015,0.642163 0.0094,0.731334 0.09551,1.08977 0.26375,1.097762 0.847746,2.176142 1.734531,3.202688 0.04823,0.05585 0.07163,0.10152 0.05199,0.10152 -0.01962,0 -0.288783,-0.149427 -0.598103,-0.332086 z"
       id="path3534" /><path
       style="fill:none;stroke:#d2d2d2;stroke-width:0.382132;stroke-dasharray:none;stroke-opacity:1"
       d="M 10.826128,5.3587877 10.813961,4.3482288"
       id="path3540" /><path
       style="fill:none;stroke:#d2d2d2;stroke-width:0.382132;stroke-dasharray:none;stroke-opacity:1"
       d="M 14.101408,5.5415537 14.21099,4.6169914"
       id="path3542" /><ellipse
       style="fill:none;stroke:#d2d2d2;stroke-width:0.382132;stroke-dasharray:none;stroke-opacity:1"
       id="path3596"
       cx="10.811279"
       cy="4.2740979"
       rx="0.16358168"
       ry="0.098826289" /><ellipse
       style="fill:none;stroke:#d2d2d2;stroke-width:0.382132;stroke-dasharray:none;stroke-opacity:1"
       id="path3596-2"
       cx="14.237885"
       cy="4.4793878"
       rx="0.16083309"
       ry="0.11160354" /><path
       style="display:inline;fill:none;stroke:#d2d2d2;stroke-width:0.187;stroke-dasharray:none;stroke-opacity:1;paint-order:normal"
       d="m 12.761362,11.708108 c -1.512318,-0.04405 -2.806838,-0.316603 -3.9819203,-0.8384 l -0.1764965,-0.07838 -0.0024,-1.0103125 c -0.0026,-1.127509 -0.00871,-0.997634 0.063649,-1.367639 C 8.7139552,8.1588725 8.76626,7.9180225 8.8367293,7.6189895 9.0348637,6.7782015 9.1966781,6.4201374 9.4666631,6.2251029 9.5816638,6.1420387 9.695919,6.099293 9.8374861,6.0736887 10.030976,6.001171 10.01876,5.8399687 10.031894,5.7232236 c 0.01569,-0.1372252 0.0299,-0.2504605 0.03156,-0.2517037 0.0056,-0.00429 1.530954,-0.029944 1.535458,-0.025849 0.0037,0.00337 0.05922,0.4721312 0.05922,0.5042706 0.214971,-0.014147 0.510951,-0.022254 0.771692,-0.032051 0.269149,0.0052 0.458353,0.031084 0.679099,0.093315 0.227689,0.033303 0.09552,-0.010796 0.143,-0.016163 0.06972,0.015287 0.05489,0.041053 0.128891,-0.2266065 0.03994,-0.1444654 0.07035,-0.2400399 0.07641,-0.2400426 0.01854,-1.09e-5 1.301415,0.2527188 1.307233,0.2575256 0.0046,0.00392 -0.06297,0.5271582 -0.08279,0.6413959 0.02257,0.041352 0.12363,0.091752 0.177585,0.119776 0.228724,0.135152 0.389975,0.252455 0.588778,0.428303 0.334621,0.296072 0.546298,0.600735 0.636098,0.915711 0.08109,0.284313 0.07384,0.530522 -0.03387,1.152781 -0.141754,0.818818 -0.225239,1.4894601 -0.28007,2.2497441 -0.0096,0.13355 -0.01846,0.243662 -0.01961,0.244674 -0.0075,0.0068 -0.464113,0.06155 -0.716359,0.08606 -0.772898,0.07513 -1.560544,0.10396 -2.272927,0.08323 z m -0.539408,-1.392055 0.112579,0.0014 0.112581,0.0014 v -0.04493 -0.04498 l -0.03994,-0.005 c -0.02196,-0.0026 -0.06749,-0.005 -0.101173,-0.005 -0.09227,0 -0.329133,-0.02558 -0.623709,-0.06786 -0.438053,-0.06252 -0.574997,-0.07756 -0.836551,-0.09166 -0.16144,-0.009 -0.51429,-0.01049 -0.670193,-0.003 l -0.104667,0.0051 9.6e-5,0.03115 c 6.9e-5,0.01699 0.0026,0.03927 0.0056,0.04916 0.0053,0.01722 0.008,0.0178 0.06704,0.015 l 0.06158,-0.0036 c 0.307303,0.301363 0.578965,0.459993 0.890888,0.755948 0.383466,-0.257041 0.733731,-0.327303 1.125869,-0.593128 z m 0.717052,-1.1533395 c 0.111452,-0.03712 0.233983,-0.136008 0.287956,-0.232379 0.05663,-0.101123 0.05774,-0.115444 0.04757,-0.6133 -0.0095,-0.4649 -0.01371,-0.514175 -0.05293,-0.620172 -0.05084,-0.137379 -0.136405,-0.232723 -0.255796,-0.284965 -0.07152,-0.03131 -0.07673,-0.03242 -0.156427,-0.03242 -0.135566,0 -0.23244,0.04286 -0.300661,0.133081 -0.07784,0.102946 -0.0965,0.188652 -0.102429,0.470719 -0.0056,0.265665 0.01156,0.775094 0.02857,0.848943 0.03174,0.137858 0.128691,0.273163 0.228668,0.319141 0.08167,0.03758 0.183993,0.04179 0.275487,0.01166 z m -2.312054,-0.04209 c 0.137794,-0.03611 0.294301,-0.169109 0.338689,-0.287781 0.03294,-0.08809 0.03517,-0.134522 0.0262,-0.544843 -0.0091,-0.416063 -0.01597,-0.511611 -0.04359,-0.606045 -0.05561,-0.190081 -0.201744,-0.326739 -0.375313,-0.351003 -0.156294,-0.02155 -0.313026,0.05071 -0.380514,0.176146 -0.07401,0.137474 -0.08845,0.332233 -0.06693,0.902503 0.0126,0.333974 0.01384,0.348256 0.03574,0.414338 0.05131,0.15469 0.145001,0.257872 0.269885,0.297281 0.04252,0.01346 0.143595,0.01329 0.195816,-6.67e-4 z"
       id="path3724"
       sodipodi:nodetypes="cccccccccccccccsscccccccccccccccccscccccccccccccccsscccccccccccccccc" /></g></svg>
